[10:41:56] gtkgui: HandBrake 1.6.1 (2023021700) - Linux x86_64 - https://handbrake.fr
[10:41:56] Compile-time hardening features are enabled
[10:41:56] hb_display_init: attempting VA driver 'iHD'
[10:41:56] hb_display_init: using VA driver 'iHD'
[10:41:56] qsv: is available on this system
[10:41:56] nvenc: version 12.1 is available
[10:41:56] nvdec: is not compiled into this build
[10:41:56] hb_init: starting libhb thread
[10:41:56] hb_init: starting libhb thread
[10:41:56] hb_init: starting libhb thread
[10:41:57] CPU: Intel(R) Core(TM) i7-10510U CPU @ 1.80GHz
[10:41:57]  - Intel microarchitecture Kaby Lake
[10:41:57]  - logical processor count: 8
[10:41:57] Intel Quick Sync Video support: yes
[10:41:57] Intel Quick Sync Video integrated adapter with index 0
[10:41:57] Impl mfxhw64 library path: /usr/lib/libmfxhw64.so.1.35
[10:41:57]  - Intel Media SDK hardware: API 1.35 (minimum: 1.3)
[10:41:57]  - Decode support:  h264 hevc (8bit: yes, 10bit: yes)
[10:41:57]  - H.264 encoder: yes
[10:41:57]     - preferred implementation: hardware (any) via ANY
[10:41:57]     - capabilities (hardware):  breftype icq+la+i+downs vsinfo chromalocinfo opt1 opt2+mbbrc+extbrc+trellis+repeatpps+ib_adapt+nmpslice
[10:41:57]  - H.265 encoder: yes (8bit: yes, 10bit: yes)
[10:41:57]     - preferred implementation: hardware (any) via ANY
[10:41:57]     - capabilities (hardware):  bpyramid icq vsinfo masteringinfo cllinfo opt1
[10:41:57]  - AV1 encoder: no
[10:41:57] hb_scan: path=/home/huyhoang/Videos/[Cab Fansub] Kimi wo Aishita Hitori no Boku e [BD 1920x1080]/[Cab Fansub] Kimi wo Aishita Hitori no Boku e [BD 1920x1080].mp4, title_index=0
udfread ERROR: ECMA 167 Volume Recognition failed
disc.c:333: failed opening UDF image /home/huyhoang/Videos/[Cab Fansub] Kimi wo Aishita Hitori no Boku e [BD 1920x1080]/[Cab Fansub] Kimi wo Aishita Hitori no Boku e [BD 1920x1080].mp4
disc.c:437: error opening file BDMV/index.bdmv
disc.c:437: error opening file BDMV/BACKUP/index.bdmv
[10:41:57] bd: not a bd - trying as a stream/file instead
libdvdread: DVDOpenFileUDF:UDFFindFile /VIDEO_TS/VIDEO_TS.IFO failed
libdvdnav: vm: vm: failed to read VIDEO_TS.IFO
[10:41:57] dvd: not a dvd - trying as a stream/file instead
Input #0, mov,mp4,m4a,3gp,3g2,mj2, from '/home/huyhoang/Videos/[Cab Fansub] Kimi wo Aishita Hitori no Boku e [BD 1920x1080]/[Cab Fansub] Kimi wo Aishita Hitori no Boku e [BD 1920x1080].mp4':
  Metadata:
    major_brand     : isom
    minor_version   : 512
    compatible_brands: isomiso2avc1mp41
    encoder         : KONAYUKI PLUS
    comment         : V=2.0.7213.1875 / API=2021.01.28.19.02.01 / Encode_Time=2023/10/03 17:52:05 / Encoder=0 / Preset=2 / Quality=19 / Resize=0 / 60FPS=0 / Line_Darkener=0 / Sharpen=0 / Warp_Sharp=0 / Noise_Remover=0 / Brightness=100 / Contrast=100 / Saturation=100 / Debandin
  Duration: 01:38:32.06, start: 0.000000, bitrate: 2424 kb/s
  Stream #0:0[0x1](und): Video: h264 (High) (avc1 / 0x31637661), yuv420p(progressive), 1920x1080, 2291 kb/s, 24 fps, 24 tbr, 12288 tbn (default)
    Metadata:
      handler_name    : VideoHandler
      vendor_id       : [0][0][0][0]
  Stream #0:1[0x2](und): Audio: aac (LC) (mp4a / 0x6134706D), 48000 Hz, 5.1, fltp, 127 kb/s (default)
    Metadata:
      handler_name    : SoundHandler
      vendor_id       : [0][0][0][0]
[10:41:57] scan: decoding previews for title 1
[10:41:57] scan: audio 0x1: aac, rate=48000Hz, bitrate=127638 Unknown (AAC LC) (5.1 ch) (127 kbps)
[10:41:57] scan: 10 previews, 1920x1080, 24,000 fps, autocrop = 0/0/0/0, aspect 16:9, PAR 1:1, color profile: 1-1-1, chroma location: left
[10:41:57] scan: supported video decoders: avcodec qsv
[10:41:57] libhb: scan thread found 1 valid title(s)
